<svg width="922" height="377" viewBox="0 0 922 377" fill="none" xmlns="http://www.w3.org/2000/svg">
<path d="M93.2295 163.04C81.3862 163.04 70.2712 160.95 59.8845 156.77C49.4979 152.59 40.3462 146.795 32.4295 139.385C24.5129 131.912 18.3379 123.267 13.9045 113.45C9.4712 103.633 7.25453 93.0883 7.25453 81.815C7.25453 70.4783 9.4712 59.9017 13.9045 50.085C18.4012 40.205 24.5762 31.56 32.4295 24.15C40.3462 16.6767 49.4662 10.85 59.7895 6.66999C70.1762 2.48999 81.2595 0.399994 93.0395 0.399994C102.666 0.399994 111.818 1.76166 120.495 4.48499C129.235 7.20832 136.708 10.7867 142.915 15.22L129.615 41.345C125.371 37.9883 120.21 35.36 114.13 33.46C108.05 31.56 101.685 30.61 95.0345 30.61C87.2445 30.61 80.0245 31.9083 73.3745 34.505C66.7879 37.1017 61.0245 40.7117 56.0845 45.335C51.2079 49.9583 47.4079 55.3733 44.6845 61.58C41.9612 67.7867 40.5995 74.5 40.5995 81.72C40.5995 88.94 41.9612 95.6533 44.6845 101.86C47.4079 108.067 51.2079 113.482 56.0845 118.105C61.0245 122.728 66.7879 126.338 73.3745 128.935C80.0245 131.532 87.2445 132.83 95.0345 132.83C101.685 132.83 108.05 131.88 114.13 129.98C120.21 128.08 125.371 125.452 129.615 122.095L142.915 148.22C136.961 152.527 129.646 156.073 120.97 158.86C112.293 161.647 103.046 163.04 93.2295 163.04ZM234.618 163.04C223.661 163.04 213.401 160.95 203.838 156.77C194.274 152.59 185.883 146.795 178.663 139.385C171.443 131.912 165.774 123.267 161.658 113.45C157.604 103.57 155.578 92.9933 155.578 81.72C155.578 70.4467 157.604 59.9017 161.658 50.085C165.774 40.205 171.443 31.56 178.663 24.15C185.883 16.6767 194.274 10.85 203.838 6.66999C213.401 2.48999 223.661 0.399994 234.618 0.399994C245.574 0.399994 255.834 2.48999 265.398 6.66999C274.961 10.85 283.353 16.6767 290.573 24.15C297.793 31.56 303.429 40.205 307.483 50.085C311.599 59.9017 313.658 70.4467 313.658 81.72C313.658 92.9933 311.599 103.57 307.483 113.45C303.429 123.267 297.793 131.912 290.573 139.385C283.353 146.795 274.961 152.59 265.398 156.77C255.834 160.95 245.574 163.04 234.618 163.04ZM234.523 133.4C241.236 133.4 247.379 132.133 252.953 129.6C258.526 127.067 263.371 123.488 267.488 118.865C271.604 114.242 274.803 108.795 277.083 102.525C279.363 96.1917 280.503 89.2567 280.503 81.72C280.503 74.1833 279.363 67.28 277.083 61.01C274.803 54.6767 271.604 49.1983 267.488 44.575C263.371 39.9517 258.526 36.3733 252.953 33.84C247.379 31.3067 241.236 30.04 234.523 30.04C227.936 30.04 221.824 31.3067 216.188 33.84C210.614 36.3733 205.769 39.9517 201.653 44.575C197.536 49.1983 194.338 54.6767 192.058 61.01C189.841 67.28 188.733 74.1833 188.733 81.72C188.733 89.2567 189.841 96.1917 192.058 102.525C194.338 108.795 197.536 114.242 201.653 118.865C205.769 123.488 210.614 127.067 216.188 129.6C221.824 132.133 227.936 133.4 234.523 133.4ZM343.967 160V3.24999H374.747L442.292 108.7V3.24999H473.072V160H442.292L374.747 54.55V160H343.967ZM514.834 160V3.24999H602.044V30.23H545.614V67.945H599.764V94.925H545.614V133.02H602.044V160H514.834ZM679.607 163.04C672.323 163.04 665.61 162.217 659.467 160.57C653.323 158.987 647.813 156.992 642.937 154.585C638.123 152.115 633.975 149.582 630.492 146.985C627.008 144.388 624.253 142.108 622.227 140.145L637.997 114.685C640.087 116.522 642.588 118.58 645.502 120.86C648.415 123.14 651.677 125.325 655.287 127.415C658.897 129.442 662.792 131.152 666.972 132.545C671.215 133.875 675.712 134.54 680.462 134.54C684.895 134.54 688.79 133.843 692.147 132.45C695.567 131.057 698.258 128.998 700.222 126.275C702.185 123.488 703.167 120.037 703.167 115.92C703.167 112.183 702.375 109.017 700.792 106.42C699.208 103.76 696.865 101.385 693.762 99.295C690.722 97.1417 686.953 95.0517 682.457 93.025C678.023 90.935 672.957 88.655 667.257 86.185C663.013 84.285 658.96 82.1317 655.097 79.725C651.297 77.255 647.908 74.405 644.932 71.175C641.955 67.945 639.58 64.3033 637.807 60.25C636.097 56.1333 635.242 51.5417 635.242 46.475C635.242 40.4583 636.445 34.695 638.852 29.185C641.258 23.675 644.678 18.7667 649.112 14.46C653.608 10.1533 658.928 6.73333 665.072 4.19999C671.278 1.66666 678.182 0.399994 685.782 0.399994C691.482 0.399994 697.182 1.15999 702.882 2.67999C708.582 4.19999 713.902 6.19499 718.842 8.66499C723.782 11.135 727.962 13.8267 731.382 16.74L718.557 40.87C715.833 38.5267 712.73 36.4367 709.247 34.6C705.827 32.7 702.153 31.18 698.227 30.04C694.363 28.9 690.437 28.33 686.447 28.33C681.95 28.33 678.118 29.1217 674.952 30.705C671.848 32.2883 669.442 34.41 667.732 37.07C666.085 39.6667 665.262 42.58 665.262 45.81C665.262 48.47 665.8 50.75 666.877 52.65C668.017 54.4867 669.6 56.1017 671.627 57.495C673.653 58.825 676.092 60.1233 678.942 61.39C681.792 62.5933 684.927 63.8917 688.347 65.285C695.693 68.3883 702.343 71.46 708.297 74.5C714.25 77.54 719.348 80.9283 723.592 84.665C727.835 88.3383 731.065 92.645 733.282 97.585C735.562 102.525 736.702 108.415 736.702 115.255C736.702 125.262 734.295 133.843 729.482 141C724.732 148.157 718.082 153.635 709.532 157.435C700.982 161.172 691.007 163.04 679.607 163.04ZM824.318 163.04C804.685 163.04 789.833 158.132 779.763 148.315C769.693 138.435 764.658 123.805 764.658 104.425V3.24999H795.438V95.59C795.438 108.827 797.687 118.358 802.183 124.185C806.743 129.948 814.122 132.83 824.318 132.83C834.515 132.83 841.862 129.948 846.358 124.185C850.918 118.358 853.198 108.827 853.198 95.59V3.24999H883.978V104.425C883.978 123.805 878.943 138.435 868.873 148.315C858.867 158.132 844.015 163.04 824.318 163.04ZM0.668366 373V216.25H54.0584C64.255 216.25 73.3117 218.023 81.2284 221.57C89.145 225.117 95.3834 230.405 99.9434 237.435C104.503 244.402 106.783 253.11 106.783 263.56C106.783 273.947 104.503 282.813 99.9434 290.16C95.3834 297.507 89.145 303.143 81.2284 307.07C73.3117 310.933 64.255 312.865 54.0584 312.865H31.4484V373H0.668366ZM31.4484 288.26H44.5584C49.9417 288.26 54.8817 287.468 59.3784 285.885C63.9384 284.302 67.6117 281.768 70.3984 278.285C73.185 274.802 74.5784 270.21 74.5784 264.51C74.5784 258.747 73.185 254.155 70.3984 250.735C67.6117 247.252 63.9384 244.75 59.3784 243.23C54.8817 241.647 49.9417 240.855 44.5584 240.855H31.4484V288.26ZM134.24 373V216.25H187.63C198.333 216.25 207.612 218.15 215.465 221.95C223.382 225.687 229.493 231.102 233.8 238.195C238.17 245.225 240.355 253.712 240.355 263.655C240.355 271.508 238.962 278.602 236.175 284.935C233.388 291.205 229.398 296.493 224.205 300.8C219.012 305.107 212.71 308.305 205.3 310.395L256.6 373H217.555L172.335 313.91H165.02V373H134.24ZM165.02 288.26H178.13C184.527 288.26 189.942 287.342 194.375 285.505C198.808 283.668 202.197 280.977 204.54 277.43C206.947 273.82 208.15 269.513 208.15 264.51C208.15 256.91 205.522 251.083 200.265 247.03C195.072 242.913 187.693 240.855 178.13 240.855H165.02V288.26ZM344.358 376.04C333.401 376.04 323.141 373.95 313.578 369.77C304.014 365.59 295.623 359.795 288.403 352.385C281.183 344.912 275.514 336.267 271.398 326.45C267.344 316.57 265.318 305.993 265.318 294.72C265.318 283.447 267.344 272.902 271.398 263.085C275.514 253.205 281.183 244.56 288.403 237.15C295.623 229.677 304.014 223.85 313.578 219.67C323.141 215.49 333.401 213.4 344.358 213.4C355.314 213.4 365.574 215.49 375.138 219.67C384.701 223.85 393.093 229.677 400.313 237.15C407.533 244.56 413.169 253.205 417.223 263.085C421.339 272.902 423.398 283.447 423.398 294.72C423.398 305.993 421.339 316.57 417.223 326.45C413.169 336.267 407.533 344.912 400.313 352.385C393.093 359.795 384.701 365.59 375.138 369.77C365.574 373.95 355.314 376.04 344.358 376.04ZM344.263 346.4C350.976 346.4 357.119 345.133 362.693 342.6C368.266 340.067 373.111 336.488 377.228 331.865C381.344 327.242 384.543 321.795 386.823 315.525C389.103 309.192 390.243 302.257 390.243 294.72C390.243 287.183 389.103 280.28 386.823 274.01C384.543 267.677 381.344 262.198 377.228 257.575C373.111 252.952 368.266 249.373 362.693 246.84C357.119 244.307 350.976 243.04 344.263 243.04C337.676 243.04 331.564 244.307 325.928 246.84C320.354 249.373 315.509 252.952 311.393 257.575C307.276 262.198 304.078 267.677 301.798 274.01C299.581 280.28 298.473 287.183 298.473 294.72C298.473 302.257 299.581 309.192 301.798 315.525C304.078 321.795 307.276 327.242 311.393 331.865C315.509 336.488 320.354 340.067 325.928 342.6C331.564 345.133 337.676 346.4 344.263 346.4ZM473.467 376.04C458.9 376.04 446.36 371.1 435.847 361.22L446.107 335.76C453.897 342.98 461.37 346.59 468.527 346.59C475.114 346.59 480.244 344.31 483.917 339.75C487.654 335.19 489.522 328.92 489.522 320.94V216.25H520.302V328.92C520.302 343.867 516.154 355.457 507.857 363.69C499.56 371.923 488.097 376.04 473.467 376.04ZM560.374 373V216.25H647.584V243.23H591.154V280.945H645.304V307.925H591.154V346.02H647.584V373H560.374ZM754.882 376.04C743.039 376.04 731.924 373.95 721.537 369.77C711.151 365.59 701.999 359.795 694.082 352.385C686.166 344.912 679.991 336.267 675.557 326.45C671.124 316.633 668.907 306.088 668.907 294.815C668.907 283.478 671.124 272.902 675.557 263.085C680.054 253.205 686.229 244.56 694.082 237.15C701.999 229.677 711.119 223.85 721.442 219.67C731.829 215.49 742.912 213.4 754.692 213.4C764.319 213.4 773.471 214.762 782.147 217.485C790.887 220.208 798.361 223.787 804.567 228.22L791.267 254.345C787.024 250.988 781.862 248.36 775.782 246.46C769.702 244.56 763.337 243.61 756.687 243.61C748.897 243.61 741.677 244.908 735.027 247.505C728.441 250.102 722.677 253.712 717.737 258.335C712.861 262.958 709.061 268.373 706.337 274.58C703.614 280.787 702.252 287.5 702.252 294.72C702.252 301.94 703.614 308.653 706.337 314.86C709.061 321.067 712.861 326.482 717.737 331.105C722.677 335.728 728.441 339.338 735.027 341.935C741.677 344.532 748.897 345.83 756.687 345.83C763.337 345.83 769.702 344.88 775.782 342.98C781.862 341.08 787.024 338.452 791.267 335.095L804.567 361.22C798.614 365.527 791.299 369.073 782.622 371.86C773.946 374.647 764.699 376.04 754.882 376.04ZM850.67 373V243.42H810.96V216.25H921.16V243.42H881.355V373H850.67Z" fill="white"/>
</svg>
