<svg width="877" height="164" viewBox="0 0 877 164" fill="none" xmlns="http://www.w3.org/2000/svg">
<path d="M86.2295 163.04C74.3862 163.04 63.2712 160.95 52.8845 156.77C42.4979 152.59 33.3462 146.795 25.4295 139.385C17.5129 131.912 11.3379 123.267 6.90453 113.45C2.4712 103.633 0.254531 93.0883 0.254531 81.815C0.254531 70.4783 2.4712 59.9017 6.90453 50.085C11.4012 40.205 17.5762 31.56 25.4295 24.15C33.3462 16.6767 42.4662 10.85 52.7895 6.66999C63.1762 2.48999 74.2595 0.399994 86.0395 0.399994C95.6662 0.399994 104.818 1.76166 113.495 4.48499C122.235 7.20832 129.708 10.7867 135.915 15.22L122.615 41.345C118.371 37.9883 113.21 35.36 107.13 33.46C101.05 31.56 94.6845 30.61 88.0345 30.61C80.2445 30.61 73.0245 31.9083 66.3745 34.505C59.7879 37.1017 54.0245 40.7117 49.0845 45.335C44.2079 49.9583 40.4079 55.3733 37.6845 61.58C34.9612 67.7867 33.5995 74.5 33.5995 81.72C33.5995 88.94 34.9612 95.6533 37.6845 101.86C40.4079 108.067 44.2079 113.482 49.0845 118.105C54.0245 122.728 59.7879 126.338 66.3745 128.935C73.0245 131.532 80.2445 132.83 88.0345 132.83C94.6845 132.83 101.05 131.88 107.13 129.98C113.21 128.08 118.371 125.452 122.615 122.095L135.915 148.22C129.961 152.527 122.646 156.073 113.97 158.86C105.293 161.647 96.0462 163.04 86.2295 163.04ZM227.618 163.04C216.661 163.04 206.401 160.95 196.838 156.77C187.274 152.59 178.883 146.795 171.663 139.385C164.443 131.912 158.774 123.267 154.658 113.45C150.604 103.57 148.578 92.9933 148.578 81.72C148.578 70.4467 150.604 59.9017 154.658 50.085C158.774 40.205 164.443 31.56 171.663 24.15C178.883 16.6767 187.274 10.85 196.838 6.66999C206.401 2.48999 216.661 0.399994 227.618 0.399994C238.574 0.399994 248.834 2.48999 258.398 6.66999C267.961 10.85 276.353 16.6767 283.573 24.15C290.793 31.56 296.429 40.205 300.483 50.085C304.599 59.9017 306.658 70.4467 306.658 81.72C306.658 92.9933 304.599 103.57 300.483 113.45C296.429 123.267 290.793 131.912 283.573 139.385C276.353 146.795 267.961 152.59 258.398 156.77C248.834 160.95 238.574 163.04 227.618 163.04ZM227.523 133.4C234.236 133.4 240.379 132.133 245.953 129.6C251.526 127.067 256.371 123.488 260.488 118.865C264.604 114.242 267.803 108.795 270.083 102.525C272.363 96.1917 273.503 89.2567 273.503 81.72C273.503 74.1833 272.363 67.28 270.083 61.01C267.803 54.6767 264.604 49.1983 260.488 44.575C256.371 39.9517 251.526 36.3733 245.953 33.84C240.379 31.3067 234.236 30.04 227.523 30.04C220.936 30.04 214.824 31.3067 209.188 33.84C203.614 36.3733 198.769 39.9517 194.653 44.575C190.536 49.1983 187.338 54.6767 185.058 61.01C182.841 67.28 181.733 74.1833 181.733 81.72C181.733 89.2567 182.841 96.1917 185.058 102.525C187.338 108.795 190.536 114.242 194.653 118.865C198.769 123.488 203.614 127.067 209.188 129.6C214.824 132.133 220.936 133.4 227.523 133.4ZM336.967 160V3.24999H367.747L435.292 108.7V3.24999H466.072V160H435.292L367.747 54.55V160H336.967ZM507.834 160V3.24999H595.044V30.23H538.614V67.945H592.764V94.925H538.614V133.02H595.044V160H507.834ZM672.607 163.04C665.323 163.04 658.61 162.217 652.467 160.57C646.323 158.987 640.813 156.992 635.937 154.585C631.123 152.115 626.975 149.582 623.492 146.985C620.008 144.388 617.253 142.108 615.227 140.145L630.997 114.685C633.087 116.522 635.588 118.58 638.502 120.86C641.415 123.14 644.677 125.325 648.287 127.415C651.897 129.442 655.792 131.152 659.972 132.545C664.215 133.875 668.712 134.54 673.462 134.54C677.895 134.54 681.79 133.843 685.147 132.45C688.567 131.057 691.258 128.998 693.222 126.275C695.185 123.488 696.167 120.037 696.167 115.92C696.167 112.183 695.375 109.017 693.792 106.42C692.208 103.76 689.865 101.385 686.762 99.295C683.722 97.1417 679.953 95.0517 675.457 93.025C671.023 90.935 665.957 88.655 660.257 86.185C656.013 84.285 651.96 82.1317 648.097 79.725C644.297 77.255 640.908 74.405 637.932 71.175C634.955 67.945 632.58 64.3033 630.807 60.25C629.097 56.1333 628.242 51.5417 628.242 46.475C628.242 40.4583 629.445 34.695 631.852 29.185C634.258 23.675 637.678 18.7667 642.112 14.46C646.608 10.1533 651.928 6.73333 658.072 4.19999C664.278 1.66666 671.182 0.399994 678.782 0.399994C684.482 0.399994 690.182 1.15999 695.882 2.67999C701.582 4.19999 706.902 6.19499 711.842 8.66499C716.782 11.135 720.962 13.8267 724.382 16.74L711.557 40.87C708.833 38.5267 705.73 36.4367 702.247 34.6C698.827 32.7 695.153 31.18 691.227 30.04C687.363 28.9 683.437 28.33 679.447 28.33C674.95 28.33 671.118 29.1217 667.952 30.705C664.848 32.2883 662.442 34.41 660.732 37.07C659.085 39.6667 658.262 42.58 658.262 45.81C658.262 48.47 658.8 50.75 659.877 52.65C661.017 54.4867 662.6 56.1017 664.627 57.495C666.653 58.825 669.092 60.1233 671.942 61.39C674.792 62.5933 677.927 63.8917 681.347 65.285C688.693 68.3883 695.343 71.46 701.297 74.5C707.25 77.54 712.348 80.9283 716.592 84.665C720.835 88.3383 724.065 92.645 726.282 97.585C728.562 102.525 729.702 108.415 729.702 115.255C729.702 125.262 727.295 133.843 722.482 141C717.732 148.157 711.082 153.635 702.532 157.435C693.982 161.172 684.007 163.04 672.607 163.04ZM817.318 163.04C797.685 163.04 782.833 158.132 772.763 148.315C762.693 138.435 757.658 123.805 757.658 104.425V3.24999H788.438V95.59C788.438 108.827 790.687 118.358 795.183 124.185C799.743 129.948 807.122 132.83 817.318 132.83C827.515 132.83 834.862 129.948 839.358 124.185C843.918 118.358 846.198 108.827 846.198 95.59V3.24999H876.978V104.425C876.978 123.805 871.943 138.435 861.873 148.315C851.867 158.132 837.015 163.04 817.318 163.04Z" fill="black"/>
</svg>
