<svg width="694" height="600" viewBox="0 0 694 600" fill="none" xmlns="http://www.w3.org/2000/svg">
<path d="M306.618 5.91394C282.332 5.91394 262.485 17.7034 250.342 39.3411L192.133 142.157L314.295 214.872L389.791 81.2179L368.038 43.8867C353.336 18.3753 332.862 5.91394 306.618 5.91394Z" fill="#C52B5A"/>
<path d="M192.749 481.453C192.749 518.783 222.806 549.567 259.261 549.567V549.568H375.703V404.812H224.085L203.638 442.143C197.24 453.268 192.749 470.97 192.749 481.453Z" fill="#DBAF1A"/>
<path d="M343.094 0C358.449 6.55535 371.244 18.3751 380.829 35.3831L449.273 157.215L406.42 182.085L545.19 184.087L613.012 59.6094L570.809 85.1746L531.794 17.0607C525.369 5.9138 514.506 0 500.431 0H343.094Z" fill="#E6007E"/>
<path d="M671.873 390.424C658.451 400.885 642.442 406.126 623.275 406.126V406.125H486.356V355.018L414.725 477.525L486.356 600V549.566H561.225C574.652 549.566 586.142 543.011 592.539 531.886L671.873 390.424Z" fill="#14BA2F"/>
<path d="M181.022 475.921C178.751 459.056 182.29 442.588 191.949 426.032L191.95 426.033L260.946 307.768L305.089 333.521L235.369 209.917L93.4849 210.071L137.048 235.486L99.3198 300.155C92.5539 311.752 92.4262 324.98 98.8111 336.112L181.022 475.921Z" fill="#FBC614"/>
<path d="M693.634 321.624C693.634 309.827 690.422 298.703 684.651 288.22L626.469 185.372L504.304 256.772L579.751 390.426H622.003C635.399 390.426 648.849 387.141 658.459 381.869C678.906 370.102 693.634 345.209 693.634 321.624Z" fill="#15962A"/>
</svg>
