<svg xmlns="http://www.w3.org/2000/svg" shape-rendering="geometricPrecision" text-rendering="geometricPrecision" image-rendering="optimizeQuality" fill-rule="evenodd" clip-rule="evenodd" viewBox="0 0 512 483.04"><path d="m310.09 236.19 10.77 11.34c2.83 2.98 2.71 7.74-.27 10.57l-9.13 8.67a58.92 58.92 0 0 1 5.15 14.87l11.52.29c4.12.1 7.4 3.56 7.29 7.67l-.39 15.63c-.11 4.11-3.56 7.39-7.67 7.28l-12.58-.32a59.554 59.554 0 0 1-6.89 14.14l7.96 8.37c2.83 2.98 2.71 7.74-.27 10.57l-11.34 10.77c-2.98 2.83-7.74 2.71-10.57-.27l-8.67-9.12c-4.7 2.36-9.72 4.1-14.87 5.14l-.3 11.53c-.1 4.11-3.55 7.39-7.67 7.29l-15.62-.4c-4.11-.11-7.39-3.56-7.28-7.67l.32-12.58a59.554 59.554 0 0 1-14.14-6.89l-8.37 7.95c-2.98 2.84-7.74 2.71-10.58-.27l-10.76-11.33c-2.84-2.98-2.72-7.74.27-10.57l9.12-8.67a58.92 58.92 0 0 1-5.15-14.87l-11.52-.29c-4.11-.1-7.4-3.56-7.3-7.67l.41-15.63c.1-4.11 3.55-7.39 7.66-7.28l12.58.32c1.66-4.99 3.98-9.77 6.89-14.15l-7.95-8.36c-2.83-2.99-2.71-7.74.27-10.57l11.33-10.77c2.98-2.84 7.74-2.72 10.57.27l8.68 9.12c4.64-2.34 9.63-4.09 14.86-5.15l.3-11.52c.1-4.11 3.55-7.39 7.67-7.29l15.62.4c4.11.11 7.39 3.56 7.29 7.67l-.32 12.58c4.99 1.65 9.76 3.97 14.14 6.88l8.36-7.94c2.99-2.84 7.75-2.71 10.59.27l-.01-.01zM100 238.27c-2.79 5.83-9.8 8.28-15.64 5.49-5.83-2.79-8.28-9.76-5.49-15.63 6.17-12.93 13.77-25.06 22.57-36.21a192.928 192.928 0 0 1 29.95-30.37c5.03-4.11 12.42-3.34 16.47 1.68 4.11 5.03 3.34 12.42-1.69 16.48-9.75 7.95-18.63 16.9-26.36 26.7-7.73 9.85-14.36 20.5-19.81 31.86zM211.45 31.44c23.06-28.49 49.63-43.99 69.59-18.64 22.94 1.2 32.77 36.01 16.99 53.18 1.13-.01 2.2.22 3.11.72 1.21.65 2.12 1.72 2.58 3.24.94 3.06-.38 6.12-1.06 9.09-1.05 4.58-2.22 9.62-7.44 9.34l-.84-.09c-.19 9.48-4.81 13.84-10.87 19.53 1.15 1.68 2.31 3.38 3.57 5 .81 1.03 1.34 1.72 2.29 2.52 10.42 8.74 30.03 10.64 41.08 16.81 3.57 1.98 6.8 4.51 9.39 7.94 6.49 8.57 7.54 15.98 8.84 26.31.17.71.27 1.42.27 2.14 0 1.43-1.16 2.59-2.58 2.59H174.36c-1.42 0-2.58-1.16-2.58-2.59 0-.73.11-1.46.28-2.17 1.31-10.32 2.35-17.72 8.83-26.28 2.6-3.43 5.82-5.95 9.39-7.94 10.93-6.1 29.59-8.03 40.71-16.51 1.83-3.16 3.29-6.98 4.54-10.41-4.41-4.08-7.79-8.5-8.56-16.91l-.52.01c-1.23-.01-2.41-.29-3.5-.92-2.43-1.38-3.76-4.02-4.41-7.04-.77-3.6-1.69-13.98 3.27-16-.61-11.37 1.32-29.38-10.36-32.92zm69.17 79.11c-5.99 5.58-12.53 8.29-19.16 8.3-6.93 0-13.89-2.98-20.35-8.73l-2.42-2.11c-1.32 3.49-2.97 7.66-5.02 10.73 10.89 22.07 43.06 22.84 53.48.13-2.61-2.66-4.6-5.49-6.53-8.32zm-2.67-76.41c-5.26 5.29-10.81 6.82-16.27 7.29-1.6.29-3.18.48-4.74.68-5.23.64-10.46 1.29-17.38 6.07-3.29 2.28-5.48 5.04-6.59 8.24-1.13 3.25-1.2 7.06-.25 11.38.08.41.06.85-.09 1.28-.43 1.18-1.75 1.79-2.94 1.36-1.84-.67-5.81-2.79-6.8-.43-.33 2.5-.53 6.29.13 9.4.7 3.27 1.92 5.09 5.41 4.02l.62-.1c1.26-.03 2.31.96 2.33 2.23.25 10.34 4.85 14.31 10.43 19.12l2.34 2.03c5.62 4.99 11.53 7.57 17.31 7.57 5.64 0 11.27-2.46 16.52-7.53l2.37-2.25c5.86-5.5 10.18-9.56 9.35-19.44-.14-1.88 1.94-3.17 3.54-2.1.64.41 1.44.81 2.21.85 1.93.1 2.99-7.25 3.66-9.22.41-1.54.46-2.61.25-3.31-.23-.74-.89-.78-1.57-.72-1.13.11-2.49.68-3.76 1.62-.5.44-1.18.65-1.89.53a2.282 2.282 0 0 1-1.87-2.64c2.16-12.57 1.17-20.77-1.51-26.35-2.34-4.89-6.09-7.87-10.15-10.08l-.66.5zM374.5 298.6c23.06-28.5 49.63-43.99 69.59-18.65 22.94 1.2 32.77 36.02 16.99 53.18 1.13-.01 2.2.22 3.11.73 1.21.65 2.12 1.72 2.58 3.24.94 3.05-.37 6.11-1.06 9.08-1.05 4.58-2.21 9.62-7.44 9.35l-.83-.1c-.2 9.48-4.82 13.84-10.88 19.53 1.15 1.69 2.31 3.38 3.57 5 .81 1.03 1.34 1.72 2.29 2.52 10.42 8.74 30.03 10.64 41.08 16.81 3.58 1.98 6.8 4.52 9.39 7.94 6.49 8.57 7.54 15.98 8.84 26.31.17.71.27 1.42.27 2.14 0 1.43-1.16 2.59-2.58 2.59H337.41c-1.42 0-2.58-1.16-2.58-2.59 0-.73.11-1.46.28-2.17 1.31-10.32 2.35-17.72 8.84-26.28 2.59-3.42 5.81-5.95 9.38-7.94 10.93-6.1 29.59-8.03 40.71-16.51 1.83-3.16 3.29-6.98 4.54-10.41-4.4-4.08-7.79-8.49-8.56-16.9l-.52.01c-1.23-.02-2.41-.3-3.5-.93-2.43-1.38-3.76-4.02-4.41-7.04-.77-3.59-1.69-13.97 3.27-15.99-.61-11.38 1.32-29.39-10.36-32.92zm69.17 79.1c-5.99 5.58-12.52 8.29-19.15 8.3-6.94 0-13.9-2.97-20.36-8.72l-2.42-2.12c-1.32 3.49-2.97 7.66-5.02 10.73 10.89 22.07 43.06 22.84 53.48.13-2.61-2.66-4.6-5.49-6.53-8.32zM441 301.29c-5.26 5.29-10.81 6.82-16.27 7.29-1.6.29-3.18.49-4.74.68-5.23.65-10.46 1.29-17.38 6.08-3.28 2.28-5.48 5.03-6.59 8.23-1.13 3.25-1.2 7.06-.25 11.38.09.41.06.85-.09 1.28a2.291 2.291 0 0 1-2.93 1.36c-1.85-.67-5.82-2.79-6.81-.43-.33 2.5-.53 6.29.13 9.41.7 3.26 1.92 5.08 5.41 4.01l.62-.1c1.26-.03 2.31.97 2.34 2.23.24 10.35 4.84 14.31 10.43 19.12l2.34 2.03c5.61 4.99 11.53 7.57 17.31 7.57 5.63 0 11.26-2.46 16.51-7.53l2.37-2.24c5.86-5.51 10.18-9.57 9.35-19.45-.14-1.87 1.94-3.17 3.55-2.1.63.41 1.44.82 2.2.85 1.93.1 3-7.25 3.66-9.22.41-1.53.46-2.61.25-3.31-.23-.74-.89-.78-1.57-.72-1.13.11-2.48.68-3.76 1.62-.49.44-1.18.66-1.89.54a2.3 2.3 0 0 1-1.87-2.65c2.16-12.57 1.17-20.77-1.51-26.35-2.34-4.89-6.09-7.86-10.15-10.08l-.66.5zM39.67 298.6c23.06-28.5 49.63-43.99 69.59-18.65 22.93 1.2 32.76 36.02 16.99 53.18 1.12-.01 2.19.22 3.11.73 1.2.65 2.12 1.72 2.58 3.24.94 3.05-.38 6.11-1.06 9.08-1.05 4.58-2.22 9.62-7.44 9.35l-.84-.1c-.19 9.48-4.82 13.84-10.87 19.53 1.15 1.69 2.3 3.38 3.57 5 .8 1.03 1.33 1.72 2.29 2.52 10.42 8.74 30.03 10.64 41.08 16.81 3.57 1.98 6.8 4.52 9.39 7.94 6.49 8.57 7.53 15.98 8.84 26.31.16.71.27 1.42.27 2.14 0 1.43-1.16 2.59-2.58 2.59H2.58c-1.42 0-2.58-1.16-2.58-2.59 0-.73.11-1.46.28-2.17 1.3-10.32 2.35-17.72 8.83-26.28 2.6-3.42 5.82-5.95 9.39-7.94 10.92-6.1 29.59-8.03 40.71-16.51 1.83-3.16 3.29-6.98 4.53-10.41-4.4-4.08-7.79-8.49-8.55-16.9l-.52.01c-1.23-.02-2.41-.3-3.5-.93-2.44-1.38-3.76-4.02-4.41-7.04-.77-3.59-1.69-13.97 3.27-15.99-.61-11.38 1.31-29.39-10.36-32.92zm69.16 79.1c-5.98 5.58-12.52 8.29-19.15 8.3-6.93 0-13.89-2.97-20.35-8.72l-2.43-2.12c-1.31 3.49-2.96 7.66-5.01 10.73 10.88 22.07 43.06 22.84 53.48.13-2.61-2.66-4.6-5.49-6.54-8.32zm-2.66-76.41c-5.26 5.29-10.82 6.82-16.27 7.29-1.61.29-3.18.49-4.75.68-5.23.65-10.45 1.29-17.37 6.08-3.29 2.28-5.48 5.03-6.6 8.23-1.13 3.25-1.19 7.06-.24 11.38.08.41.06.85-.09 1.28-.43 1.18-1.75 1.79-2.94 1.36-1.84-.67-5.81-2.79-6.8-.43-.33 2.5-.53 6.29.13 9.41.69 3.26 1.92 5.08 5.41 4.01l.62-.1c1.26-.03 2.31.97 2.33 2.23.25 10.35 4.85 14.31 10.43 19.12l2.34 2.03c5.61 4.99 11.53 7.57 17.31 7.57 5.63 0 11.27-2.46 16.52-7.53l2.37-2.24c5.86-5.51 10.18-9.57 9.35-19.45-.15-1.87 1.93-3.17 3.54-2.1.63.41 1.44.82 2.21.85 1.93.1 2.99-7.25 3.66-9.22.41-1.53.46-2.61.25-3.31-.23-.74-.89-.78-1.57-.72-1.13.11-2.49.68-3.76 1.62-.5.44-1.18.66-1.89.54a2.292 2.292 0 0 1-1.87-2.65c2.15-12.57 1.17-20.77-1.51-26.35-2.35-4.89-6.09-7.86-10.15-10.08l-.66.5zm269.96-119.55c-4.94-4.14-5.58-11.54-1.44-16.48 4.15-4.94 11.54-5.58 16.48-1.44 2.37 1.99 4.23 3.6 5.62 4.86 1.69 1.52 3.47 3.26 5.41 5.12 7.1 7.01 13.65 14.45 19.48 22.3a197.97 197.97 0 0 1 15.84 25.06c3 5.75.8 12.84-4.9 15.84-5.75 3-12.85.8-15.84-4.9-4.02-7.61-8.67-14.96-13.9-21.93-5.28-7.05-10.99-13.65-17.11-19.64-1.4-1.4-3.01-2.87-4.74-4.48-2.07-1.86-3.72-3.3-4.9-4.31zm-62.19 269.07c6.13-2.07 12.76 1.27 14.83 7.39 2.08 6.13-1.26 12.76-7.39 14.83-9.76 3.3-19.86 5.83-30.25 7.48-10.26 1.69-20.7 2.53-31.18 2.53-10.69 0-21.3-.88-31.73-2.61-10.69-1.78-21-4.4-30.84-7.78-6.13-2.11-9.42-8.79-7.31-14.92 2.11-6.12 8.79-9.41 14.91-7.3 8.79 2.99 17.83 5.32 26.96 6.84 9 1.48 18.34 2.28 27.97 2.28 9.46 0 18.63-.76 27.42-2.19 9.17-1.44 18.04-3.68 26.61-6.55zm-54.87-188.05c16.97.43 30.37 14.54 29.94 31.5-.43 16.96-14.54 30.37-31.5 29.93-16.96-.43-30.37-14.54-29.94-31.5.43-16.96 14.54-30.37 31.5-29.93z"/></svg>